<svg width="25" height="25" viewBox="0 0 25 25" fill="none" xmlns="http://www.w3.org/2000/svg">
<g clip-path="url(#clip0_158_2135)">
<path d="M24.7969 12.0498C24.7969 5.42238 19.4243 0.0498047 12.7969 0.0498047C6.16945 0.0498047 0.796875 5.42238 0.796875 12.0498C0.796875 18.0393 5.18508 23.0038 10.9219 23.904V15.5186H7.875V12.0498H10.9219V9.40606C10.9219 6.39856 12.7134 4.7373 15.4545 4.7373C16.767 4.7373 18.1406 4.97168 18.1406 4.97168V7.9248H16.6275C15.1369 7.9248 14.6719 8.84988 14.6719 9.7998V12.0498H18L17.468 15.5186H14.6719V23.904C20.4087 23.0038 24.7969 18.0393 24.7969 12.0498Z" fill="#2C2A29"/>
</g>
<defs>
<clipPath id="clip0_158_2135">
<rect width="24" height="24" fill="white" transform="translate(0.796875 0.0498047)"/>
</clipPath>
</defs>
</svg>
