<svg width="25" height="25" viewBox="0 0 25 25" fill="none" xmlns="http://www.w3.org/2000/svg">
<path d="M23.0203 0.0498047H2.56875C1.58906 0.0498047 0.796875 0.823242 0.796875 1.77949V22.3154C0.796875 23.2717 1.58906 24.0498 2.56875 24.0498H23.0203C24 24.0498 24.7969 23.2717 24.7969 22.3201V1.77949C24.7969 0.823242 24 0.0498047 23.0203 0.0498047ZM7.91719 20.5014H4.35469V9.04512H7.91719V20.5014ZM6.13594 7.48418C4.99219 7.48418 4.06875 6.56074 4.06875 5.42168C4.06875 4.28262 4.99219 3.35918 6.13594 3.35918C7.275 3.35918 8.19844 4.28262 8.19844 5.42168C8.19844 6.55605 7.275 7.48418 6.13594 7.48418ZM21.2484 20.5014H17.6906V14.9326C17.6906 13.6061 17.6672 11.8951 15.8391 11.8951C13.9875 11.8951 13.7062 13.3436 13.7062 14.8389V20.5014H10.1531V9.04512H13.5656V10.6107H13.6125C14.0859 9.71074 15.2484 8.75918 16.9781 8.75918C20.5828 8.75918 21.2484 11.1311 21.2484 14.2154V20.5014Z" fill="#2C2A29"/>
</svg>
