<svg width="25" height="18" viewBox="0 0 25 18" fill="none" xmlns="http://www.w3.org/2000/svg">
<path d="M24.5578 4.24961C24.5578 4.24961 24.3234 2.59492 23.6016 1.86836C22.6875 0.912109 21.6656 0.907422 21.1969 0.851172C17.8406 0.607422 12.8016 0.607422 12.8016 0.607422H12.7922C12.7922 0.607422 7.75313 0.607422 4.39688 0.851172C3.92813 0.907422 2.90625 0.912109 1.99219 1.86836C1.27031 2.59492 1.04062 4.24961 1.04062 4.24961C1.04062 4.24961 0.796875 6.19492 0.796875 8.13555V9.9543C0.796875 11.8949 1.03594 13.8402 1.03594 13.8402C1.03594 13.8402 1.27031 15.4949 1.9875 16.2215C2.90156 17.1777 4.10156 17.1449 4.63594 17.248C6.55781 17.4309 12.7969 17.4871 12.7969 17.4871C12.7969 17.4871 17.8406 17.4777 21.1969 17.2387C21.6656 17.1824 22.6875 17.1777 23.6016 16.2215C24.3234 15.4949 24.5578 13.8402 24.5578 13.8402C24.5578 13.8402 24.7969 11.8996 24.7969 9.9543V8.13555C24.7969 6.19492 24.5578 4.24961 24.5578 4.24961ZM10.3172 12.1621V5.4168L16.8 8.80117L10.3172 12.1621Z" fill="#2C2A29"/>
</svg>
